<svg width="93" height="16" viewBox="0 0 93 16" fill="none" xmlns="http://www.w3.org/2000/svg">
<path d="M4.49854 15H0.0098989V0.454545H4.6974C6.10838 0.454545 7.31577 0.745738 8.31956 1.32812C9.32335 1.90578 10.0928 2.73674 10.6278 3.82102C11.1628 4.90057 11.4304 6.19318 11.4304 7.69886C11.4304 9.21401 11.1605 10.5185 10.6207 11.6122C10.0809 12.7012 9.29494 13.5393 8.26274 14.1264C7.23054 14.7088 5.97581 15 4.49854 15ZM1.77126 13.4375H4.3849C5.58755 13.4375 6.58424 13.2055 7.37496 12.7415C8.16568 12.2775 8.75516 11.617 9.14342 10.7599C9.53168 9.90294 9.72581 8.88258 9.72581 7.69886C9.72581 6.52462 9.53405 5.51373 9.15052 4.66619C8.767 3.81392 8.19408 3.16051 7.43177 2.70597C6.66946 2.24669 5.72013 2.01705 4.58376 2.01705H1.77126V13.4375ZM21.0326 10.5398V4.09091H22.7088V15H21.0326V13.1534H20.919C20.6633 13.7074 20.2656 14.1785 19.7258 14.5668C19.186 14.9503 18.5042 15.142 17.6804 15.142C16.9985 15.142 16.3925 14.9929 15.8622 14.6946C15.3319 14.3916 14.9152 13.937 14.6122 13.331C14.3091 12.7202 14.1576 11.9508 14.1576 11.0227V4.09091H15.8338V10.9091C15.8338 11.7045 16.0563 12.339 16.5014 12.8125C16.9512 13.286 17.5241 13.5227 18.2201 13.5227C18.6368 13.5227 19.0606 13.4162 19.4914 13.2031C19.927 12.9901 20.2916 12.6634 20.5852 12.223C20.8835 11.7827 21.0326 11.2216 21.0326 10.5398ZM30.3526 15.2273C29.3014 15.2273 28.3947 14.9953 27.6324 14.5312C26.8748 14.0625 26.2901 13.4091 25.8782 12.571C25.471 11.7282 25.2674 10.7481 25.2674 9.63068C25.2674 8.51326 25.471 7.52841 25.8782 6.67614C26.2901 5.81913 26.863 5.15152 27.5969 4.6733C28.3355 4.19034 29.1973 3.94886 30.1821 3.94886C30.7503 3.94886 31.3114 4.04356 31.8654 4.23295C32.4193 4.42235 32.9236 4.73011 33.3782 5.15625C33.8327 5.57765 34.1949 6.13636 34.4648 6.83239C34.7347 7.52841 34.8696 8.38542 34.8696 9.40341V10.1136H26.4605V8.66477H33.1651C33.1651 8.04924 33.042 7.5 32.7958 7.01705C32.5543 6.53409 32.2086 6.15294 31.7588 5.87358C31.3138 5.59422 30.7882 5.45455 30.1821 5.45455C29.5145 5.45455 28.9369 5.62026 28.4492 5.9517C27.9662 6.27841 27.5945 6.70455 27.3341 7.23011C27.0737 7.75568 26.9435 8.31913 26.9435 8.92045V9.88636C26.9435 10.7102 27.0855 11.4086 27.3696 11.9815C27.6585 12.5497 28.0585 12.983 28.5699 13.2812C29.0813 13.5748 29.6755 13.7216 30.3526 13.7216C30.7929 13.7216 31.1907 13.66 31.5458 13.5369C31.9056 13.4091 32.2157 13.2197 32.4762 12.9688C32.7366 12.7131 32.9378 12.3958 33.0799 12.017L34.6992 12.4716C34.5287 13.0208 34.2423 13.5038 33.8398 13.9205C33.4373 14.3324 32.9402 14.6544 32.3483 14.8864C31.7565 15.1136 31.0912 15.2273 30.3526 15.2273ZM47.1637 15.2273C46.2546 15.2273 45.452 14.9976 44.756 14.5384C44.06 14.0743 43.5155 13.4209 43.1225 12.5781C42.7295 11.7306 42.533 10.7292 42.533 9.57386C42.533 8.42803 42.7295 7.43371 43.1225 6.59091C43.5155 5.74811 44.0623 5.09706 44.7631 4.63778C45.4639 4.1785 46.2735 3.94886 47.1921 3.94886C47.9023 3.94886 48.4634 4.06723 48.8753 4.30398C49.292 4.53598 49.6092 4.80114 49.827 5.09943C50.0496 5.39299 50.2224 5.63447 50.3455 5.82386H50.4875V0.454545H52.1637V15H50.5443V13.3239H50.3455C50.2224 13.5227 50.0472 13.7737 49.8199 14.0767C49.5926 14.375 49.2683 14.6425 48.8469 14.8793C48.4255 15.1113 47.8644 15.2273 47.1637 15.2273ZM47.3909 13.7216C48.0633 13.7216 48.6315 13.5464 49.0955 13.196C49.5595 12.8409 49.9122 12.3509 50.1537 11.7259C50.3952 11.0961 50.5159 10.3693 50.5159 9.54545C50.5159 8.73106 50.3976 8.01847 50.1608 7.40767C49.9241 6.79214 49.5737 6.31392 49.1097 5.97301C48.6457 5.62737 48.0728 5.45455 47.3909 5.45455C46.6807 5.45455 46.0889 5.63684 45.6154 6.00142C45.1466 6.36127 44.7939 6.85133 44.5571 7.47159C44.3251 8.08712 44.2091 8.77841 44.2091 9.54545C44.2091 10.322 44.3275 11.0275 44.5642 11.6619C44.8057 12.2917 45.1608 12.7936 45.6296 13.1676C46.1031 13.5369 46.6902 13.7216 47.3909 13.7216ZM58.6764 15.2557C57.9852 15.2557 57.3578 15.1255 56.7943 14.8651C56.2309 14.5999 55.7835 14.2188 55.452 13.7216C55.1206 13.2197 54.9549 12.6136 54.9549 11.9034C54.9549 11.2784 55.078 10.7718 55.3242 10.3835C55.5704 9.99053 55.8995 9.68276 56.3114 9.46023C56.7233 9.23769 57.1779 9.07197 57.675 8.96307C58.1769 8.84943 58.6812 8.75947 59.1878 8.69318C59.8507 8.60795 60.3881 8.54403 60.8 8.50142C61.2167 8.45407 61.5197 8.37595 61.7091 8.26705C61.9032 8.15814 62.0003 7.96875 62.0003 7.69886V7.64205C62.0003 6.94129 61.8085 6.39678 61.425 6.00852C61.0462 5.62027 60.471 5.42614 59.6992 5.42614C58.899 5.42614 58.2716 5.60133 57.8171 5.9517C57.3625 6.30208 57.0429 6.67614 56.8583 7.07386L55.2674 6.50568C55.5514 5.8428 55.9302 5.3267 56.4037 4.95739C56.8819 4.58333 57.4028 4.32292 57.9662 4.17614C58.5344 4.02462 59.0931 3.94886 59.6424 3.94886C59.9927 3.94886 60.3952 3.99148 60.8497 4.0767C61.309 4.1572 61.7517 4.32528 62.1779 4.58097C62.6087 4.83665 62.9662 5.22254 63.2503 5.73864C63.5344 6.25473 63.6764 6.94602 63.6764 7.8125V15H62.0003V13.5227H61.9151C61.8014 13.7595 61.6121 14.0128 61.3469 14.2827C61.0818 14.5526 60.729 14.7822 60.2887 14.9716C59.8483 15.161 59.3109 15.2557 58.6764 15.2557ZM58.9321 13.75C59.595 13.75 60.1537 13.6198 60.6083 13.3594C61.0675 13.099 61.4132 12.7628 61.6452 12.3509C61.8819 11.9389 62.0003 11.5057 62.0003 11.0511V9.51705C61.9293 9.60227 61.773 9.6804 61.5316 9.75142C61.2948 9.81771 61.0202 9.87689 60.7077 9.92898C60.3999 9.97633 60.0993 10.0189 59.8057 10.0568C59.5169 10.09 59.2825 10.1184 59.1026 10.142C58.667 10.1989 58.2598 10.2912 57.881 10.419C57.5069 10.5421 57.2039 10.7292 56.9719 10.9801C56.7446 11.2263 56.631 11.5625 56.631 11.9886C56.631 12.571 56.8464 13.0114 57.2773 13.3097C57.7129 13.6032 58.2645 13.75 58.9321 13.75ZM71.4801 4.09091V5.51136H65.8267V4.09091H71.4801ZM67.4744 1.47727H69.1505V11.875C69.1505 12.3485 69.2192 12.7036 69.3565 12.9403C69.4985 13.1723 69.6785 13.3286 69.8963 13.4091C70.1188 13.4848 70.3532 13.5227 70.5994 13.5227C70.784 13.5227 70.9356 13.5133 71.0539 13.4943C71.1723 13.4706 71.267 13.4517 71.338 13.4375L71.6789 14.9432C71.5653 14.9858 71.4067 15.0284 71.2031 15.071C70.9995 15.1184 70.7414 15.142 70.4289 15.142C69.9554 15.142 69.4914 15.0402 69.0369 14.8366C68.5871 14.633 68.213 14.3229 67.9147 13.9062C67.6212 13.4896 67.4744 12.964 67.4744 12.3295V1.47727ZM78.4581 15.2273C77.4069 15.2273 76.5002 14.9953 75.7379 14.5312C74.9803 14.0625 74.3956 13.4091 73.9836 12.571C73.5764 11.7282 73.3728 10.7481 73.3728 9.63068C73.3728 8.51326 73.5764 7.52841 73.9836 6.67614C74.3956 5.81913 74.9685 5.15152 75.7024 4.6733C76.441 4.19034 77.3027 3.94886 78.2876 3.94886C78.8558 3.94886 79.4169 4.04356 79.9708 4.23295C80.5248 4.42235 81.0291 4.73011 81.4836 5.15625C81.9382 5.57765 82.3004 6.13636 82.5703 6.83239C82.8402 7.52841 82.9751 8.38542 82.9751 9.40341V10.1136H74.566V8.66477H81.2706C81.2706 8.04924 81.1474 7.5 80.9012 7.01705C80.6598 6.53409 80.3141 6.15294 79.8643 5.87358C79.4192 5.59422 78.8937 5.45455 78.2876 5.45455C77.62 5.45455 77.0423 5.62026 76.5546 5.9517C76.0717 6.27841 75.7 6.70455 75.4396 7.23011C75.1792 7.75568 75.049 8.31913 75.049 8.92045V9.88636C75.049 10.7102 75.191 11.4086 75.4751 11.9815C75.7639 12.5497 76.164 12.983 76.6754 13.2812C77.1867 13.5748 77.781 13.7216 78.4581 13.7216C78.8984 13.7216 79.2961 13.66 79.6512 13.5369C80.0111 13.4091 80.3212 13.2197 80.5816 12.9688C80.842 12.7131 81.0433 12.3958 81.1853 12.017L82.8046 12.4716C82.6342 13.0208 82.3477 13.5038 81.9453 13.9205C81.5428 14.3324 81.0456 14.6544 80.4538 14.8864C79.8619 15.1136 79.1967 15.2273 78.4581 15.2273Z" fill="#2A3647"/>
<path d="M88.3089 8.63636L88.4225 5.51136L85.7805 7.1875L85.0987 5.99432L87.8828 4.54545L85.0987 3.09659L85.7805 1.90341L88.4225 3.57955L88.3089 0.454545H89.6725L89.5589 3.57955L92.201 1.90341L92.8828 3.09659L90.0987 4.54545L92.8828 5.99432L92.201 7.1875L89.5589 5.51136L89.6725 8.63636H88.3089Z" fill="#FF8190"/>
</svg>
