<svg width="51" height="16" viewBox="0 0 51 16" fill="none" xmlns="http://www.w3.org/2000/svg">
<path d="M0.965909 2.01705V0.454545H11.875V2.01705H7.30114V15H5.53977V2.01705H0.965909ZM14.3661 15V4.09091H16.0423V15H14.3661ZM15.2184 2.27273C14.8917 2.27273 14.61 2.16146 14.3732 1.93892C14.1412 1.71638 14.0252 1.44886 14.0252 1.13636C14.0252 0.823864 14.1412 0.556345 14.3732 0.333806C14.61 0.111269 14.8917 0 15.2184 0C15.5451 0 15.8245 0.111269 16.0565 0.333806C16.2932 0.556345 16.4116 0.823864 16.4116 1.13636C16.4116 1.44886 16.2932 1.71638 16.0565 1.93892C15.8245 2.16146 15.5451 2.27273 15.2184 2.27273ZM23.8565 4.09091V5.51136H18.2031V4.09091H23.8565ZM19.8509 1.47727H21.527V11.875C21.527 12.3485 21.5956 12.7036 21.733 12.9403C21.875 13.1723 22.0549 13.3286 22.2727 13.4091C22.4953 13.4848 22.7296 13.5227 22.9759 13.5227C23.1605 13.5227 23.312 13.5133 23.4304 13.4943C23.5488 13.4706 23.6435 13.4517 23.7145 13.4375L24.0554 14.9432C23.9418 14.9858 23.7831 15.0284 23.5795 15.071C23.3759 15.1184 23.1179 15.142 22.8054 15.142C22.3319 15.142 21.8679 15.0402 21.4134 14.8366C20.9635 14.633 20.5895 14.3229 20.2912 13.9062C19.9976 13.4896 19.8509 12.964 19.8509 12.3295V1.47727ZM28.2884 0.454545V15H26.6122V0.454545H28.2884ZM35.9322 15.2273C34.881 15.2273 33.9743 14.9953 33.212 14.5312C32.4544 14.0625 31.8697 13.4091 31.4577 12.571C31.0505 11.7282 30.8469 10.7481 30.8469 9.63068C30.8469 8.51326 31.0505 7.52841 31.4577 6.67614C31.8697 5.81913 32.4426 5.15152 33.1765 4.6733C33.9151 4.19034 34.7769 3.94886 35.7617 3.94886C36.3299 3.94886 36.891 4.04356 37.445 4.23295C37.9989 4.42235 38.5032 4.73011 38.9577 5.15625C39.4123 5.57765 39.7745 6.13636 40.0444 6.83239C40.3143 7.52841 40.4492 8.38542 40.4492 9.40341V10.1136H32.0401V8.66477H38.7447C38.7447 8.04924 38.6216 7.5 38.3754 7.01705C38.1339 6.53409 37.7882 6.15294 37.3384 5.87358C36.8933 5.59422 36.3678 5.45455 35.7617 5.45455C35.0941 5.45455 34.5165 5.62026 34.0288 5.9517C33.5458 6.27841 33.1741 6.70455 32.9137 7.23011C32.6533 7.75568 32.5231 8.31913 32.5231 8.92045V9.88636C32.5231 10.7102 32.6651 11.4086 32.9492 11.9815C33.238 12.5497 33.6381 12.983 34.1495 13.2812C34.6609 13.5748 35.2551 13.7216 35.9322 13.7216C36.3725 13.7216 36.7702 13.66 37.1254 13.5369C37.4852 13.4091 37.7953 13.2197 38.0558 12.9688C38.3162 12.7131 38.5174 12.3958 38.6594 12.017L40.2788 12.4716C40.1083 13.0208 39.8219 13.5038 39.4194 13.9205C39.0169 14.3324 38.5198 14.6544 37.9279 14.8864C37.3361 15.1136 36.6708 15.2273 35.9322 15.2273Z" fill="#2A3647"/>
<path d="M45.783 8.63636L45.8967 5.51136L43.2546 7.1875L42.5728 5.99432L45.3569 4.54545L42.5728 3.09659L43.2546 1.90341L45.8967 3.57955L45.783 0.454545H47.1467L47.033 3.57955L49.6751 1.90341L50.3569 3.09659L47.5728 4.54545L50.3569 5.99432L49.6751 7.1875L47.033 5.51136L47.1467 8.63636H45.783Z" fill="#FF8190"/>
</svg>
