<svg width="18" height="12" viewBox="0 0 18 12" fill="none" xmlns="http://www.w3.org/2000/svg">
<g clip-path="url(#clip0_175506_4644)">
<path d="M9.00002 4.75488C9.19945 4.75455 9.39372 4.81645 9.55427 4.93149L17.1228 10.3655C17.2212 10.4362 17.3044 10.5251 17.3675 10.6272C17.4307 10.7292 17.4725 10.8423 17.4907 10.96C17.5273 11.1978 17.4654 11.44 17.3184 11.6334C17.1714 11.8267 16.9514 11.9554 16.7068 11.9911C16.4623 12.0267 16.2131 11.9665 16.0143 11.8236L9.00002 6.79262L1.98577 11.8236C1.8873 11.8943 1.77545 11.9455 1.65662 11.9743C1.53779 12.003 1.4143 12.0087 1.2932 11.9911C1.1721 11.9734 1.05577 11.9327 0.950844 11.8714C0.845915 11.81 0.754446 11.7291 0.681662 11.6334C0.608878 11.5376 0.556201 11.4289 0.52664 11.3134C0.49708 11.1978 0.491215 11.0778 0.509379 10.96C0.527545 10.8423 0.569382 10.7292 0.632508 10.6272C0.695632 10.5251 0.778805 10.4362 0.87728 10.3654L8.44577 4.93149C8.60631 4.81645 8.80059 4.75455 9.00002 4.75488Z" fill="#FF3D00"/>
<path d="M9.00002 8.0474e-07C9.19945 -0.000333441 9.39372 0.0615695 9.55427 0.176604L17.1228 5.61057C17.3216 5.75348 17.454 5.96736 17.4907 6.20514C17.5273 6.44292 17.4654 6.68513 17.3184 6.87849C17.1714 7.07185 16.9514 7.20051 16.7068 7.23618C16.4623 7.27185 16.2131 7.2116 16.0143 7.06868L9.00002 2.03774L1.98577 7.06868C1.78689 7.2116 1.53777 7.27185 1.2932 7.23618C1.04863 7.20051 0.828657 7.07185 0.681662 6.87849C0.534667 6.68513 0.472695 6.44292 0.509379 6.20514C0.546065 5.96736 0.678402 5.75348 0.87728 5.61057L8.44577 0.176604C8.60631 0.0615695 8.80059 -0.000333475 9.00002 8.0474e-07Z" fill="#FF3D00"/>
</g>
<defs>
<clipPath id="clip0_175506_4644">
<rect width="17" height="12" fill="white" transform="translate(17.5 12) rotate(-180)"/>
</clipPath>
</defs>
</svg>
